<svg width="89" height="89" viewBox="0 0 89 89" fill="none" xmlns="http://www.w3.org/2000/svg">
<path d="M0.5 0.5V88.5H88.5V0.5H0.5ZM48.3893 69.1321C48.3893 77.6964 43.3607 81.6054 36.0339 81.6054C29.4143 81.6054 25.5839 78.1875 23.6196 74.0429L30.3571 69.9768C31.6536 72.275 32.8321 74.2196 35.6804 74.2196C38.3911 74.2196 40.1196 73.1589 40.1196 69.0143V40.9054H48.3893V69.1321ZM67.9536 81.6054C60.2732 81.6054 55.3036 77.9518 52.8875 73.1589L59.625 69.2696C61.3929 72.1571 63.7107 74.2982 67.7768 74.2982C71.1946 74.2982 73.3946 72.5893 73.3946 70.2125C73.3946 67.3839 71.1554 66.3821 67.3643 64.7125L65.3018 63.8286C59.3304 61.2946 55.3821 58.0929 55.3821 51.3554C55.3821 45.1482 60.1161 40.4339 67.4821 40.4339C72.7464 40.4339 76.5179 42.2607 79.2286 47.0536L72.7857 51.1786C71.3714 48.6446 69.8393 47.6429 67.4625 47.6429C65.0464 47.6429 63.5143 49.175 63.5143 51.1786C63.5143 53.6536 65.0464 54.6554 68.6018 56.2071L70.6643 57.0911C77.6964 60.0964 81.6446 63.1804 81.6446 70.0946C81.6446 77.5196 75.7911 81.6054 67.9536 81.6054Z" fill="#94A3B8"/>
</svg>
