<svg width="117" height="89" viewBox="0 0 117 89" fill="none" xmlns="http://www.w3.org/2000/svg">
<path d="M55.1801 67.0291C55.1253 67.1391 55.0704 67.2271 55.1801 67.0291V67.0291ZM100.725 51.0804C97.0478 51.0792 93.4199 51.926 90.1215 53.5552C89.0429 51.3737 87.9277 49.4672 87.7449 48.0373C87.5255 46.3692 87.2878 45.3792 87.5438 43.3994C87.7997 41.4196 88.9515 38.6148 88.9332 38.4131C88.9149 38.2115 88.6772 37.2032 86.3189 37.1849C83.9606 37.1666 81.9314 37.6432 81.6955 38.2665C81.279 39.4055 80.955 40.5765 80.7266 41.7679C80.3062 43.9127 76.0118 51.5754 73.5804 55.5717C72.776 54.0135 72.0996 52.6386 71.9534 51.5387C71.734 49.8705 71.4963 48.8806 71.7523 46.9008C72.0082 44.9209 73.1599 42.1162 73.1416 41.9145C73.1234 41.7129 72.8857 40.7046 70.5292 40.6863C68.1727 40.6679 66.1417 41.1446 65.904 41.7679C65.6664 42.3911 65.4104 43.8577 64.9351 45.2692C64.4598 46.6808 58.7395 59.4398 57.2423 62.7578C56.4744 64.4443 55.8163 65.8009 55.341 66.7175C55.2679 66.8641 55.213 66.9558 55.1765 67.0291C55.2313 66.9375 55.2679 66.8458 55.2679 66.8825C54.8657 67.6707 54.628 68.1107 54.628 68.1107V68.129C54.3172 68.7157 53.9699 69.2473 53.8054 69.2473C53.6957 69.2473 53.458 67.7074 53.8602 65.5993C54.7194 61.1629 56.7487 54.2702 56.7304 54.0319C56.7121 53.9035 57.1143 52.712 55.3958 52.0704C53.7322 51.4654 53.1289 52.4737 52.9827 52.4737C52.8364 52.4737 52.7267 52.8403 52.7267 52.8403C52.7267 52.8403 54.5732 45.0676 49.182 45.0676C45.8182 45.0676 41.1381 48.7706 38.8383 52.1253C37.3941 52.9136 34.2679 54.6185 30.9773 56.4333C29.7159 57.1299 28.4179 57.8449 27.193 58.5232C27.1016 58.4315 27.0285 58.3398 26.9371 58.2482C20.3941 51.2454 8.31376 46.2958 8.82564 36.8916C9.00845 33.4635 10.1967 24.4626 32.0559 13.5368C49.9717 4.59089 64.2952 7.04735 66.7614 12.5102C70.308 20.3013 59.1033 34.8018 40.4983 36.8916C33.4069 37.6799 29.6793 34.9301 28.7469 33.9035C27.778 32.8219 27.6318 32.7669 27.2661 32.9686C26.6629 33.2985 27.0468 34.2518 27.2661 34.8201C27.8146 36.2683 30.0998 38.8348 33.9919 40.118C37.4105 41.2362 45.7249 41.8595 55.7779 37.9548C67.0722 33.5919 75.8638 21.4378 73.2861 11.2637C70.6609 0.924521 53.564 -2.46687 37.3977 3.28933C27.7652 6.71738 17.3485 12.1069 9.85489 19.128C0.953641 27.4874 -0.470485 34.7651 0.114522 37.8082C2.19678 48.6056 17.0377 55.6451 22.9773 60.8513C22.6848 61.0163 22.4106 61.1629 22.1547 61.3096C19.1766 62.7945 7.86221 68.734 5.03041 75.0035C1.83115 82.1162 5.56057 87.2125 8.00846 87.9091C15.6483 90.0356 23.4709 86.2042 27.6738 79.9164C31.8767 73.6286 31.3667 65.4159 29.4288 61.6762C29.4106 61.6212 29.374 61.5846 29.3557 61.5296C30.1235 61.0713 30.9096 60.613 31.6957 60.1547C33.2113 59.2564 34.6921 58.4315 35.9901 57.7166C35.2588 59.6964 34.7286 62.0795 34.4544 65.5259C34.1254 69.5589 35.789 74.7835 37.9462 76.8367C38.8968 77.7349 40.0467 77.7533 40.7597 77.7533C43.2825 77.7533 44.416 75.6634 45.6756 73.1703C47.2295 70.1272 48.6006 66.5892 48.6006 66.5892C48.6006 66.5892 46.8822 76.1584 51.5805 76.1584C53.2971 76.1584 55.0156 73.9402 55.7852 72.8037V72.822C55.7852 72.822 55.8218 72.7487 55.9132 72.602C56.096 72.327 56.1874 72.162 56.1874 72.162V72.107C56.8821 70.9155 58.3995 68.184 60.6828 63.6744C63.6444 57.8449 66.4762 50.5671 66.4762 50.5671C66.7499 52.167 67.1285 53.7469 67.6097 55.2968C68.1216 57.0383 69.2002 58.9448 70.0594 60.7963C69.3647 61.7496 68.9442 62.2995 68.9442 62.2995C68.9456 62.3136 68.9521 62.3267 68.9625 62.3362C68.4141 63.0695 67.7925 63.8577 67.1526 64.6277C64.8144 67.4141 62.0338 70.6038 61.6682 71.5204C61.2294 72.602 61.3391 73.4086 62.1801 74.0319C62.8017 74.5085 63.8985 74.5818 65.0484 74.4902C67.1508 74.3435 68.6316 73.8302 69.3446 73.5003C70.659 73.0276 71.9013 72.3736 73.0356 71.5571C75.3208 69.8706 76.7102 67.4508 76.5822 64.261C76.5091 62.5012 75.9424 60.7413 75.2477 59.0914C75.4488 58.7981 75.6682 58.4865 75.8692 58.1749C79.4872 52.877 82.2842 47.0621 82.2842 47.0621C82.5579 48.6619 82.9365 50.2419 83.4177 51.7917C83.8564 53.2766 84.7138 54.9081 85.4999 56.503C82.1014 59.2711 79.999 62.4792 79.2678 64.5873C77.9149 68.492 78.9753 70.2519 80.9679 70.6552C81.8637 70.8385 83.1434 70.4169 84.0941 70.0136C85.5059 69.542 86.8371 68.8557 88.041 67.9787C90.3262 66.2922 92.5365 63.9274 92.3902 60.7193C92.3354 59.2711 91.9332 57.8229 91.403 56.4297C94.2732 55.2198 98.0008 54.5598 102.754 55.1098C112.933 56.3013 114.926 62.6808 114.542 65.3389C114.158 67.9971 112.019 69.4819 111.306 69.9219C110.593 70.3619 110.374 70.5268 110.429 70.8568C110.52 71.3335 110.849 71.3151 111.452 71.2051C112.293 71.0585 116.789 69.042 116.99 64.1107C117.282 57.8779 111.306 51.0218 100.719 51.0768L100.725 51.0804ZM22.2643 77.6066C18.9024 81.2913 14.1858 82.6845 12.1583 81.5113C9.98286 80.2427 10.8421 74.8202 14.9901 70.8935C17.513 68.5103 20.7653 66.3105 22.9225 64.954C23.4161 64.6607 24.129 64.2207 25.0066 63.6891C25.1528 63.5974 25.2259 63.5607 25.2259 63.5607C25.3905 63.4508 25.5733 63.3591 25.7561 63.2491C27.2716 68.822 25.8109 73.7349 22.2643 77.6029V77.6066ZM46.8273 60.8513C45.6573 63.7294 43.1911 71.0621 41.6921 70.6772C40.4123 70.3472 39.6262 64.756 41.4361 59.2564C42.3502 56.4883 44.288 53.1886 45.4398 51.9054C47.2844 49.8339 49.3136 49.1739 49.7889 49.9989C50.4288 51.0804 47.5586 59.0548 46.8273 60.8513ZM67.1197 70.5672C66.6261 70.8238 66.1691 70.9888 65.9497 70.8605C65.7852 70.7688 66.1508 70.4205 66.1508 70.4205C66.1508 70.4205 68.6919 67.6891 69.6974 66.4425C70.2824 65.7092 70.9588 64.8476 71.6883 63.8944C71.6883 63.986 71.7066 64.0777 71.7066 64.1877C71.6828 67.4691 68.5402 69.6872 67.1143 70.5672H67.1197ZM82.765 66.9925C82.3994 66.7358 82.4542 65.8742 83.6791 63.1978C84.1544 62.1529 85.2495 60.393 87.1526 58.7065C87.368 59.3449 87.4851 60.0125 87.4999 60.6863C87.4816 64.811 84.5383 66.3509 82.7668 66.9925H82.765Z" fill="#94A3B8"/>
</svg>
