<svg width="95" height="57" viewBox="0 0 95 57" fill="none" xmlns="http://www.w3.org/2000/svg">
<path fill-rule="evenodd" clip-rule="evenodd" d="M24 19.1C27.1328 6.56714 34.9672 0.299988 47.5 0.299988C66.3 0.299988 68.65 14.4 78.05 16.75C84.3172 18.3171 89.8 15.9671 94.5 9.69999C91.3672 22.2328 83.5328 28.5 71 28.5C52.2 28.5 49.85 14.4 40.45 12.05C34.1828 10.4828 28.7 12.8328 24 19.1ZM0.5 47.3C3.63284 34.7671 11.4672 28.5 24 28.5C42.8 28.5 45.15 42.6 54.55 44.95C60.8172 46.5171 66.3 44.1671 71 37.9C67.8672 50.4328 60.0328 56.7 47.5 56.7C28.7 56.7 26.35 42.6 16.95 40.25C10.6828 38.6828 5.2 41.0328 0.5 47.3Z" fill="#94A3B8"/>
</svg>
